<?xml version="1.0" encoding="UTF-8" standalone="no"?>
<!-- Created with Inkscape (http://www.inkscape.org/) -->

<svg
   xmlns:dc="http://purl.org/dc/elements/1.1/"
   xmlns:cc="http://creativecommons.org/ns#"
   xmlns:rdf="http://www.w3.org/1999/02/22-rdf-syntax-ns#"
   xmlns:svg="http://www.w3.org/2000/svg"
   xmlns="http://www.w3.org/2000/svg"
   xmlns:sodipodi="http://sodipodi.sourceforge.net/DTD/sodipodi-0.dtd"
   xmlns:inkscape="http://www.inkscape.org/namespaces/inkscape"
   id="svg7653"
   version="1.1"
   inkscape:version="0.91 r13725"
   width="626"
   height="515"
   viewBox="0 0 626 515"
   sodipodi:docname="advice.svg"
   inkscape:export-filename="/home/klimic/Stažené/advice.png"
   inkscape:export-xdpi="90"
   inkscape:export-ydpi="90">
  <metadata
     id="metadata7659">
    <rdf:RDF>
      <cc:Work
         rdf:about="">
        <dc:format>image/svg+xml</dc:format>
        <dc:type
           rdf:resource="http://purl.org/dc/dcmitype/StillImage" />
        <dc:title></dc:title>
      </cc:Work>
    </rdf:RDF>
  </metadata>
  <defs
     id="defs7657" />
  <sodipodi:namedview
     pagecolor="#ffffff"
     bordercolor="#666666"
     borderopacity="1"
     objecttolerance="10"
     gridtolerance="10"
     guidetolerance="10"
     inkscape:pageopacity="0"
     inkscape:pageshadow="2"
     inkscape:window-width="1366"
     inkscape:window-height="704"
     id="namedview7655"
     showgrid="false"
     inkscape:zoom="0.53315399"
     inkscape:cx="41.492831"
     inkscape:cy="453.71059"
     inkscape:window-x="-4"
     inkscape:window-y="0"
     inkscape:window-maximized="1"
     inkscape:current-layer="g8203" />
  <g
     id="g8203"
     transform="translate(-476.68072,-666.80188)">
    <path
       style="fill:#000000;fill-opacity:1;stroke:none"
       d="m 729.64809,1180.1649 c -11.99987,-2.4835 -20.83584,-11.0223 -23.59159,-22.7982 -1.31208,-5.6068 -0.84119,-14.6083 2.07929,-39.7475 0.83064,-7.15 2.3943,-22.45 3.47482,-34 1.08051,-11.55 2.74316,-28.7946 3.69477,-38.3213 1.45175,-14.5336 1.51146,-17.4564 0.37101,-18.1612 -1.94746,-1.2036 -6.87481,-1.7749 -30.5283,-3.5392 -18.75452,-1.399 -38.45079,-3.3086 -67.5,-6.5445 -23.55661,-2.6241 -38.65198,-9.4392 -45.821,-20.68679 -3.87509,-6.07971 -5.35689,-12.09964 -9.16834,-37.24702 -1.70889,-11.275 -3.78678,-24.9361 -4.61753,-30.35801 -0.83075,-5.4219 -1.24946,-10.119 -0.93046,-10.43799 0.31899,-0.31899 4.05789,0.8384 8.30866,2.57197 17.12198,6.9828 25.78492,7.63285 35.88252,2.69256 14.46109,-7.07515 21.64996,-26.7255 14.9879,-40.96853 -2.58851,-5.53407 -9.3411,-12.28565 -15.35705,-15.35476 -6.12447,-3.12447 -36.72163,-15.14524 -38.55005,-15.14524 -3.03874,0 -6.73465,2.30275 -6.73465,4.19605 0,2.06833 0.0336,2.0851 25.98704,12.9555 19.07572,7.98973 23.15971,11.10557 25.61171,19.54014 4.08991,14.06881 -5.86014,27.45454 -20.58262,27.68963 -4.52912,0.0723 -8.0694,-0.94686 -19.78571,-5.6959 -7.84826,-3.18119 -19.26652,-8.03855 -25.37391,-10.79414 -10.39997,-4.69236 -13.85651,-5.41727 -13.85651,-2.906 0,1.18724 5.80376,25.79236 15.45334,65.51472 7.76064,31.94652 11.09922,39.86721 21.06862,49.98501 12.03596,12.215 20.50438,15.4784 49.14473,18.9382 24.31297,2.9372 58.22152,6.2567 73.67345,7.2125 8.19972,0.5072 10.97853,1.0311 11.4083,2.1511 0.31249,0.8143 -0.18068,8.2829 -1.09594,16.5969 -3.00235,27.2728 -7.50641,68.8135 -9.22874,85.1163 -0.92969,8.8 -2.06922,17.0125 -2.5323,18.25 l -0.84196,2.25 -102.02475,0 -102.02475,0 -0.001,-136.75 -10e-4,-136.75001 16.00631,0.31888 c 14.40822,0.28704 16.07239,0.14669 16.66812,-1.40576 0.43616,-1.13661 -0.0665,-2.2682 -1.47418,-3.31888 -1.17479,-0.87683 -4.84994,-3.59521 -8.167,-6.04083 -7.6517,-5.64151 -11.10806,-10.61699 -12.19633,-17.55681 -1.78276,-11.36855 3.15163,-20.83335 15.79931,-30.3051 14.84754,-11.11922 56.42488,-29.62065 80.50572,-35.82411 8.37198,-2.1567 11.705,-2.52593 19.84876,-2.19883 9.13986,0.3671 10.36033,0.67708 18.45146,4.6864 10.46776,5.18697 17.0803,11.5467 23.80799,22.89774 8.20416,13.84218 15.00639,18.05051 27.33925,16.91397 12.00982,-1.10677 28.0197,-8.96773 57.55921,-28.26196 18.19742,-11.88597 21.97496,-13.96156 27.19054,-14.94 11.65639,-2.18676 24.59821,9.12811 24.63183,21.53529 0.0133,4.90116 -3.45966,13.43044 -6.57654,16.1515 -1.04045,0.90832 -11.79173,8.03184 -23.89173,15.83004 -23.43374,15.10257 -42.82944,25.24883 -56.22872,29.41431 -9.56309,2.97291 -24.89158,5.06511 -30.98773,4.22954 -5.54481,-0.76 -7.28266,0.0106 -7.28762,3.2316 -0.004,2.64165 5.54918,40.00473 8.99187,60.49871 1.00298,5.97064 2.25734,11.28944 2.78745,11.81955 0.53012,0.53012 7.88506,1.35561 16.3443,1.83443 53.9012,3.05093 70.90104,6.62943 80.15535,16.87284 7.54384,8.35013 8.23742,10.75098 8.12282,28.11749 -0.0562,8.525 -0.85923,23.6 -1.78439,33.5 -0.92517,9.9 -2.77708,30.825 -4.11536,46.5 -3.56696,41.779 -6.5057,71.0185 -7.53946,75.0154 -2.41387,9.3326 -10.79415,17.3719 -21.39001,20.5196 -5.26027,1.5627 -7.98899,1.6653 -13.5685,0.5107 z m 114.5,-0.438 c -11.33962,-3.5678 -19.94003,-12.2597 -21.87501,-22.1077 -0.81091,-4.1271 -4.21263,-39.2425 -7.12013,-73.5 -1.33037,-15.675 -3.38278,-39.75 -4.5609,-53.5 -3.24901,-37.91955 -2.44357,-44.40683 6.78114,-54.61749 9.25431,-10.24341 26.25415,-13.82191 80.15535,-16.87284 8.45924,-0.47882 15.81954,-1.30967 16.35621,-1.84634 0.53668,-0.53668 2.01903,-7.43048 3.29412,-15.31956 5.66172,-35.02941 8.46922,-53.79231 8.46922,-56.60082 0,-3.63424 -1.54897,-4.40358 -7.28355,-3.61757 -6.09615,0.83557 -21.42464,-1.25663 -30.98773,-4.22954 -13.39928,-4.16548 -32.79498,-14.31174 -56.22872,-29.41431 -12.1,-7.7982 -22.85128,-14.92172 -23.89173,-15.83004 -3.01792,-2.63466 -6.58783,-11.25505 -6.5985,-15.93362 -0.0284,-12.45298 12.42492,-23.68324 24.17841,-21.80378 5.42724,0.86785 9.40429,3.02249 27.92134,15.12687 29.40278,19.22025 45.29147,27.0187 57.30379,28.1257 12.10374,1.11543 19.32575,-3.21521 26.81367,-16.07865 6.33299,-10.8794 14.6217,-18.92064 24.59907,-23.86462 7.79653,-3.86334 9.10048,-4.18992 18.18596,-4.55484 8.14376,-0.3271 11.47678,0.0421 19.84876,2.19883 14.50414,3.7364 42.41544,14.67037 58.63694,22.97043 29.9499,15.32448 40.1926,27.06018 37.6681,43.15878 -1.0967,6.99327 -4.8669,12.41134 -12.3761,17.78531 -10.1002,7.22825 -10.1669,7.29263 -9.4614,9.13121 0.5957,1.55245 2.2599,1.6928 16.6681,1.40576 l 16.0063,-0.31888 -10e-4,136.75001 -10e-4,136.75 -102.0247,0 -102.0248,0 -0.83346,-2.25 c -0.4584,-1.2375 -1.59743,-9.45 -2.53119,-18.25 -1.69373,-15.9623 -6.09216,-56.4766 -9.24065,-85.1163 -0.91399,-8.314 -1.40613,-15.7826 -1.09364,-16.5969 0.42893,-1.1178 3.22459,-1.6506 11.4083,-2.1744 34.02402,-2.1775 90.56584,-8.6192 98.84014,-11.2607 8.8571,-2.8275 16.7692,-7.6937 23.4631,-14.4305 8.8834,-8.9402 13.3155,-17.59615 17.557,-34.28858 8.6565,-34.06832 19.5413,-81.03029 19.0673,-82.26538 -0.7816,-2.03698 -1.622,-1.8112 -13.8452,3.72 -25.069,11.34409 -38.8994,16.37746 -44.7583,16.28914 -18.83694,-0.28395 -28.50066,-22.18149 -15.84717,-35.9089 3.2755,-3.5535 6.37363,-5.25975 19.13577,-10.53876 24.5248,-10.14458 27.7275,-11.73607 27.7275,-13.77817 0,-1.87136 -3.7434,-4.15451 -6.797,-4.14558 -2.3712,0.007 -35.40114,13.33506 -40.60529,16.38489 -5.33954,3.12918 -11.22143,9.56931 -13.67523,14.97312 -2.5856,5.69409 -2.5363,15.92141 0.11087,22.99659 4.00871,10.71425 14.39767,18.95665 25.55977,20.27864 5.84438,0.69217 14.31188,-1.24416 25.63558,-5.86225 4.2508,-1.73357 7.9786,-2.90204 8.284,-2.59658 0.4661,0.46603 -2.0823,18.6787 -7.6006,54.32061 -3.3491,21.63116 -8.2713,29.69651 -22.4121,36.72331 -6.54669,3.2531 -18.78592,6.3837 -30,7.6734 -22.41217,2.5776 -49.66785,5.2082 -68.5,6.6113 -23.05925,1.7182 -28.07782,2.304 -30.0203,3.5045 -1.12954,0.6981 -1.06586,3.6772 0.38822,18.1613 0.95667,9.5294 2.8421,29.0262 4.18984,43.3262 1.34773,14.3 2.68258,27.35 2.96633,29 0.28376,1.65 1.16019,9.9416 1.94764,18.4258 1.0737,11.5684 1.16312,16.6948 0.35758,20.5 -2.32786,10.9966 -9.89257,19.2779 -20.64282,22.5983 -7.28211,2.2492 -10.98133,2.3786 -16.68649,0.5836 z m -258,-394.2256 c -14.30249,-3.64249 -24.08103,-8.91204 -32.60734,-17.57176 -26.64852,-27.06547 -20.78039,-72.36301 11.88482,-91.74187 10.1759,-6.03692 18.87286,-8.47601 30.22252,-8.47601 15.97665,0 30.12279,5.826 41.49951,17.09132 23.59722,23.36616 23.74715,59.98969 0.34143,83.40389 -11.56912,11.57332 -23.49088,16.78924 -39.84094,17.43093 -5.225,0.20507 -10.4,0.14364 -11.5,-0.1365 z m 396,-0.0168 c -15.92973,-4.1906 -23.46034,-8.2164 -32.50359,-17.37614 -23.28142,-23.58132 -23.02489,-60.00682 0.58727,-83.38777 19.3544,-19.16487 47.97188,-22.57351 71.63883,-8.53293 12.9943,7.70895 21.4949,18.81762 26.3736,34.46533 2.3933,7.6761 2.6059,9.57402 2.1008,18.75331 -0.3425,6.22265 -1.3263,12.38835 -2.5182,15.78093 -8.4124,23.94478 -29.3245,39.5679 -54.17871,40.47622 -5.225,0.19095 -10.4,0.11043 -11.5,-0.17895 z"
       id="path8205"
       inkscape:connector-curvature="0" />
  </g>
</svg>
