<?xml version="1.0" encoding="UTF-8" standalone="no"?>
<svg
   xmlns:dc="http://purl.org/dc/elements/1.1/"
   xmlns:cc="http://creativecommons.org/ns#"
   xmlns:rdf="http://www.w3.org/1999/02/22-rdf-syntax-ns#"
   xmlns:svg="http://www.w3.org/2000/svg"
   xmlns="http://www.w3.org/2000/svg"
   xmlns:sodipodi="http://sodipodi.sourceforge.net/DTD/sodipodi-0.dtd"
   xmlns:inkscape="http://www.inkscape.org/namespaces/inkscape"
   version="1.1"
   viewBox="0 0 500 326"
   xml:space="preserve"
   id="svg7008"
   inkscape:version="0.91 r13725"
   sodipodi:docname="app.svg"
   inkscape:export-filename="/home/klimic/Stažené/app.png"
   inkscape:export-xdpi="90"
   inkscape:export-ydpi="90"
   width="500"
   height="326"><metadata
     id="metadata7037"><rdf:RDF><cc:Work
         rdf:about=""><dc:format>image/svg+xml</dc:format><dc:type
           rdf:resource="http://purl.org/dc/dcmitype/StillImage" /><dc:title></dc:title></cc:Work></rdf:RDF></metadata><defs
     id="defs7035" /><sodipodi:namedview
     pagecolor="#ffffff"
     bordercolor="#666666"
     borderopacity="1"
     objecttolerance="10"
     gridtolerance="10"
     guidetolerance="10"
     inkscape:pageopacity="0"
     inkscape:pageshadow="2"
     inkscape:window-width="1366"
     inkscape:window-height="704"
     id="namedview7033"
     showgrid="false"
     inkscape:zoom="0.6675088"
     inkscape:cx="92.205639"
     inkscape:cy="214.2806"
     inkscape:window-x="-4"
     inkscape:window-y="0"
     inkscape:window-maximized="1"
     inkscape:current-layer="g7011" /><g
     id="g7011"
     transform="matrix(1.6275659,0,0,1.6275659,-156.89209,-243.48134)"
     style="fill:#000000;stroke:#000000;stroke-opacity:1;fill-opacity:1"><g
       id="_x34_"
       style="fill:#000000;stroke:#000000;stroke-opacity:1;fill-opacity:1"><path
         inkscape:connector-curvature="0"
         id="path7016"
         style="fill:#000000;fill-opacity:1;stroke:#000000;stroke-opacity:1"
         d="m 337.652,328.624 c -0.564,-0.011 -1.107,-0.065 -1.639,-0.168 -1.129,4.736 -5.415,8.339 -10.46,8.35 l -204.633,0 c -5.881,-0.011 -10.758,-4.883 -10.769,-10.77 l 0,-136.881 226.171,0 0,6.82 c 0.462,-0.076 0.928,-0.133 1.411,-0.133 l 11.502,0 0,-21.872 c -0.011,-13.078 -10.606,-23.668 -23.682,-23.698 l -204.633,0 c -13.08,0.029 -23.676,10.62 -23.698,23.698 l 0,152.067 c 0.022,13.069 10.618,23.671 23.698,23.692 l 204.634,0 c 12.19,-0.022 22.113,-9.267 23.421,-21.115 l -11.279,0.011 -0.044,0 z M 323.036,165.457 c 2.978,0 5.388,2.411 5.388,5.39 0,2.968 -2.409,5.382 -5.388,5.382 -2.974,0 -5.382,-2.414 -5.382,-5.382 0,-2.979 2.408,-5.39 5.382,-5.39 z m -42.317,0.328 26.476,0 c 2.81,0 5.072,2.262 5.072,5.062 0,2.794 -2.263,5.062 -5.072,5.062 l -26.476,0 c -2.8,0 -5.067,-2.268 -5.067,-5.062 -10e-4,-2.8 2.267,-5.062 5.067,-5.062 z" /><g
         id="g7018"
         style="fill:#000000;stroke:#000000;stroke-opacity:1;fill-opacity:1"><path
           inkscape:connector-curvature="0"
           id="path7020"
           style="fill:#000000;fill-opacity:1;stroke:#000000;stroke-opacity:1"
           d="m 351.324,235.867 c -2.35,-0.659 -4.829,-1.037 -7.39,-1.037 -1.601,0 -3.147,0.168 -4.666,0.429 -5.702,0.979 -10.802,3.681 -14.714,7.595 -4.969,4.959 -8.019,11.809 -8.019,19.374 0,7.574 3.05,14.421 8.019,19.374 3.554,3.554 8.073,6.104 13.13,7.286 2.013,0.467 4.091,0.738 6.25,0.738 2.311,0 4.558,-0.32 6.706,-0.863 4.871,-1.226 9.223,-3.722 12.662,-7.161 4.965,-4.953 8.029,-11.8 8.029,-19.374 0,-7.565 -3.064,-14.415 -8.029,-19.374 -3.271,-3.279 -7.388,-5.699 -11.978,-6.987 z m 0,33.399 c -1.867,1.958 -4.481,3.19 -7.39,3.19 -1.692,0 -3.272,-0.45 -4.666,-1.177 -3.288,-1.704 -5.556,-5.1 -5.556,-9.05 0,-3.96 2.268,-7.349 5.556,-9.052 1.395,-0.725 2.974,-1.172 4.666,-1.172 2.908,0 5.522,1.229 7.39,3.182 1.758,1.834 2.843,4.303 2.843,7.042 0,2.729 -1.085,5.209 -2.843,7.037 z" /><path
           inkscape:connector-curvature="0"
           id="path7022"
           style="fill:#000000;fill-opacity:1;stroke:#000000;stroke-opacity:1"
           d="m 401.161,254.234 -12.381,-1.473 c -1.172,-5.632 -3.401,-10.881 -6.456,-15.541 l 7.726,-9.804 c 0.554,-0.686 0.499,-1.771 -0.141,-2.398 l -8.763,-8.773 c -0.623,-0.618 -1.703,-0.689 -2.414,-0.138 l -9.793,7.726 c -4.66,-3.044 -9.9,-5.271 -15.538,-6.448 L 351.932,205 c -0.044,-0.442 -0.271,-0.841 -0.607,-1.134 -0.32,-0.282 -0.744,-0.466 -1.194,-0.466 l -10.861,0 -1.535,0 c -0.885,0 -1.692,0.716 -1.807,1.601 l -1.454,12.386 c -5.643,1.177 -10.889,3.404 -15.544,6.448 l -9.809,-7.726 c -0.684,-0.551 -1.764,-0.48 -2.403,0.138 l -8.757,8.773 c -0.635,0.627 -0.705,1.712 -0.141,2.403 l 7.715,9.798 c -3.038,4.66 -5.273,9.909 -6.445,15.541 l -12.381,1.473 c -0.89,0.101 -1.606,0.911 -1.606,1.793 l 0,12.397 c 0,0.89 0.717,1.703 1.606,1.811 l 12.381,1.454 c 1.172,5.643 3.407,10.884 6.445,15.56 l -5.024,6.381 -2.69,3.407 c -0.564,0.705 -0.494,1.779 0.141,2.397 l 6.25,6.261 0.119,0.131 2.388,2.376 c 0.629,0.629 1.72,0.694 2.414,0.141 l 3.206,-2.517 0.147,-0.131 6.445,-5.078 c 3.239,2.122 6.772,3.798 10.515,5.057 0.136,0.044 0.261,0.108 0.396,0.152 1.508,0.488 3.049,0.917 4.633,1.247 l 1.454,12.381 c 0.114,0.885 0.922,1.596 1.807,1.606 l 12.396,-0.011 c 0.879,0.011 1.709,-0.711 1.802,-1.596 l 1.47,-12.381 c 1.568,-0.33 3.109,-0.759 4.628,-1.247 3.885,-1.259 7.564,-3.012 10.91,-5.209 l 6.587,5.198 3.206,2.527 c 0.711,0.554 1.791,0.488 2.414,-0.141 l 2.393,-2.387 6.37,-6.381 c 0.64,-0.618 0.694,-1.692 0.141,-2.397 l -7.726,-9.788 c 3.055,-4.676 5.284,-9.917 6.456,-15.56 l 12.381,-1.454 c 0.868,-0.108 1.616,-0.922 1.616,-1.811 l 0,-12.397 c -0.003,-0.88 -0.751,-1.691 -1.619,-1.792 z m -53.087,40.709 c -1.362,0.174 -2.74,0.293 -4.14,0.293 -4.112,0 -8.019,-0.792 -11.643,-2.159 -12.474,-4.709 -21.354,-16.731 -21.354,-30.849 0,-16.637 12.326,-30.357 28.331,-32.631 1.524,-0.222 3.071,-0.369 4.666,-0.369 2.539,0 5.013,0.317 7.39,0.865 14.653,3.361 25.607,16.46 25.607,32.134 0.001,16.809 -12.586,30.676 -28.857,32.716 z" /></g><g
         id="g7024"
         style="fill:#000000;stroke:#000000;stroke-opacity:1;fill-opacity:1" /></g></g><g
     id="Layer_1"
     transform="translate(0,-174)" /></svg>