<?xml version="1.0" encoding="UTF-8" standalone="no"?>
<svg
   xmlns:dc="http://purl.org/dc/elements/1.1/"
   xmlns:cc="http://creativecommons.org/ns#"
   xmlns:rdf="http://www.w3.org/1999/02/22-rdf-syntax-ns#"
   xmlns:svg="http://www.w3.org/2000/svg"
   xmlns="http://www.w3.org/2000/svg"
   xmlns:sodipodi="http://sodipodi.sourceforge.net/DTD/sodipodi-0.dtd"
   xmlns:inkscape="http://www.inkscape.org/namespaces/inkscape"
   enable-background="new 0 0 512 512"
   id="Layer_1"
   version="1.1"
   viewBox="0 0 512 512"
   xml:space="preserve"
   inkscape:version="0.91 r13725"
   sodipodi:docname="blog.svg"><metadata
     id="metadata25"><rdf:RDF><cc:Work
         rdf:about=""><dc:format>image/svg+xml</dc:format><dc:type
           rdf:resource="http://purl.org/dc/dcmitype/StillImage" /><dc:title></dc:title></cc:Work></rdf:RDF></metadata><defs
     id="defs23" /><sodipodi:namedview
     pagecolor="#ffffff"
     bordercolor="#666666"
     borderopacity="1"
     objecttolerance="10"
     gridtolerance="10"
     guidetolerance="10"
     inkscape:pageopacity="0"
     inkscape:pageshadow="2"
     inkscape:window-width="1366"
     inkscape:window-height="704"
     id="namedview21"
     showgrid="false"
     inkscape:zoom="0.4609375"
     inkscape:cx="103.05085"
     inkscape:cy="256"
     inkscape:window-x="-4"
     inkscape:window-y="0"
     inkscape:window-maximized="1"
     inkscape:current-layer="Layer_1" /><g
     id="g3"
     style="fill:#000000;fill-opacity:1"><path
       d="M434.5,72.3V412c0,33.6-27.5,61.1-61,61.1H126.7c-5.6,0-11-1-16.2-2.5c7.8,23.7,30,41.1,56.2,41.1h249.9   c32.7,0,59.5-26.8,59.5-59.5V128.8C476.1,102.3,458.5,80,434.5,72.3z"
       fill="#303A3F"
       id="path5"
       style="fill:#000000;fill-opacity:1" /><path
       d="M345.2,0H95.4C62.7,0,35.9,26.8,35.9,59.5V383c0,32.7,26.8,59.5,59.5,59.5h249.9   c32.7,0,59.5-26.8,59.5-59.5V59.5C404.7,26.8,378,0,345.2,0z M364.2,349.8c0,25.7-21.1,46.8-46.8,46.8H120.9   c-25.7,0-46.8-21.1-46.8-46.8V95.4c0-25.7,21.1-46.8,46.8-46.8h196.6c25.7,0,46.8,21.1,46.8,46.8V349.8z"
       fill="#303A3F"
       id="path7"
       style="fill:#000000;fill-opacity:1" /><g
       id="g9"
       style="fill:#000000;fill-opacity:1"><path
         d="M319.8,117.5H190.5c-5.4,0-9.8-4.4-9.8-9.8v-0.7c0-5.4,4.4-9.8,9.8-9.8h129.3c5.4,0,9.8,4.4,9.8,9.8v0.7    C329.7,113.1,325.2,117.5,319.8,117.5z"
         fill="#303A3F"
         id="path11"
         style="fill:#000000;fill-opacity:1" /><path
         d="M319.8,175.2H120.4c-5.4,0-9.8-4.4-9.8-9.8v-0.7c0-5.4,4.4-9.8,9.8-9.8h199.5c5.4,0,9.8,4.4,9.8,9.8v0.7    C329.7,170.7,325.2,175.2,319.8,175.2z"
         fill="#303A3F"
         id="path13"
         style="fill:#000000;fill-opacity:1" /><path
         d="M319.8,232.8H120.4c-5.4,0-9.8-4.4-9.8-9.8v-0.7c0-5.4,4.4-9.8,9.8-9.8h199.5c5.4,0,9.8,4.4,9.8,9.8v0.7    C329.7,228.4,325.2,232.8,319.8,232.8z"
         fill="#303A3F"
         id="path15"
         style="fill:#000000;fill-opacity:1" /><path
         d="M319.8,290.5H120.4c-5.4,0-9.8-4.4-9.8-9.8v-0.7c0-5.4,4.4-9.8,9.8-9.8h199.5c5.4,0,9.8,4.4,9.8,9.8v0.7    C329.7,286.1,325.2,290.5,319.8,290.5z"
         fill="#303A3F"
         id="path17"
         style="fill:#000000;fill-opacity:1" /><path
         d="M319.8,348.2H120.4c-5.4,0-9.8-4.4-9.8-9.8v-0.7c0-5.4,4.4-9.8,9.8-9.8h199.5c5.4,0,9.8,4.4,9.8,9.8v0.7    C329.7,343.7,325.2,348.2,319.8,348.2z"
         fill="#303A3F"
         id="path19"
         style="fill:#000000;fill-opacity:1" /></g></g></svg>