<?xml version="1.0" encoding="UTF-8" standalone="no"?>
<!-- Created with Inkscape (http://www.inkscape.org/) -->

<svg
   xmlns:dc="http://purl.org/dc/elements/1.1/"
   xmlns:cc="http://creativecommons.org/ns#"
   xmlns:rdf="http://www.w3.org/1999/02/22-rdf-syntax-ns#"
   xmlns:svg="http://www.w3.org/2000/svg"
   xmlns="http://www.w3.org/2000/svg"
   xmlns:sodipodi="http://sodipodi.sourceforge.net/DTD/sodipodi-0.dtd"
   xmlns:inkscape="http://www.inkscape.org/namespaces/inkscape"
   id="svg3470"
   version="1.1"
   inkscape:version="0.91 r13725"
   width="216"
   height="153"
   viewBox="0 0 216 153"
   sodipodi:docname="diamant-white.svg"
   inkscape:export-filename="/home/klimic/Stažené/logo-text-mimo.png"
   inkscape:export-xdpi="90"
   inkscape:export-ydpi="90">
  <metadata
     id="metadata3476">
    <rdf:RDF>
      <cc:Work
         rdf:about="">
        <dc:format>image/svg+xml</dc:format>
        <dc:type
           rdf:resource="http://purl.org/dc/dcmitype/StillImage" />
        <dc:title></dc:title>
      </cc:Work>
    </rdf:RDF>
  </metadata>
  <defs
     id="defs3474">
    <inkscape:perspective
       sodipodi:type="inkscape:persp3d"
       inkscape:vp_x="0 : 320 : 1"
       inkscape:vp_y="0 : 1000 : 0"
       inkscape:vp_z="1024 : 320 : 1"
       inkscape:persp3d-origin="512 : 213.33333 : 1"
       id="perspective4335" />
  </defs>
  <sodipodi:namedview
     pagecolor="#ffffff"
     bordercolor="#666666"
     borderopacity="1"
     objecttolerance="10"
     gridtolerance="10"
     guidetolerance="10"
     inkscape:pageopacity="0"
     inkscape:pageshadow="2"
     inkscape:window-width="1366"
     inkscape:window-height="704"
     id="namedview3472"
     showgrid="false"
     inkscape:zoom="1.4142136"
     inkscape:cx="104.92758"
     inkscape:cy="128.79274"
     inkscape:window-x="-4"
     inkscape:window-y="0"
     inkscape:window-maximized="1"
     inkscape:current-layer="svg3470" />
  <path
     style="fill:#ffffff;fill-opacity:1"
     d="M 52.067086,99.84817 C 25.918675,73.641161 3.857909,51.500935 3.0431601,50.647686 l -1.4813569,-1.551371 28.5778678,0 28.577859,0 20.541681,49.100085 c 11.29793,27.00503 20.498656,49.14526 20.44606,49.20047 -0.05263,0.0553 -21.489773,-21.34169 -47.638185,-47.5487 z"
     id="path3516"
     inkscape:connector-curvature="0" />
  <path
     style="fill:#ffffff;fill-opacity:1"
     d="M 86.353094,101.07789 C 74.677194,73.027345 65.201945,49.99497 65.29699,49.894812 c 0.161848,-0.170556 84.4501,-0.782734 84.65888,-0.614889 0.15554,0.125132 -41.97879,102.798947 -42.18564,102.798947 -0.10351,0 -9.741229,-22.95044 -21.417136,-51.00098 z"
     id="path4318"
     inkscape:connector-curvature="0" />
  <path
     style="fill:#ffffff;fill-opacity:1"
     d="m 115.35813,148.19851 c 0,-0.0999 9.20335,-22.3995 20.4519,-49.55485 l 20.45192,-49.373388 8.02409,-0.08253 c 4.41327,-0.0453 17.15677,0.03301 28.31896,0.173958 l 20.29484,0.256415 -45.7169,46.252375 c -25.14431,25.4388 -47.09119,47.6602 -48.77087,49.38091 -1.67967,1.72071 -3.05394,3.04689 -3.05394,2.94706 z"
     id="path4320"
     inkscape:connector-curvature="0" />
  <path
     style="fill:#ffffff;fill-opacity:1"
     d="m 145.35785,45.61972 -32.56498,-0.176501 c 18.33584,-14.364216 35.78752,-30.193827 53.86555,-44.46176 19.11272,18.183034 32.99899,29.864775 48.2334,44.983634 l -18.48451,-0.08437 c -10.16648,-0.04648 -33.13874,-0.16387 -51.04946,-0.260928 z"
     id="path4322"
     inkscape:connector-curvature="0"
     sodipodi:nodetypes="scccss" />
  <path
     style="fill:#ffffff;fill-opacity:1;stroke:none;stroke-opacity:1"
     d="m 37.606224,0.128917 61.244068,0.1573 c 33.684228,0.08657 61.367288,0.188156 61.517918,0.225898 -21.10666,17.103364 -39.90117,33.308461 -53.75923,45.07559 l -55.080615,0.01516 -50.87840982,0.01516 C 13.737422,28.787339 24.134026,16.554908 37.606224,0.12895 Z"
     id="path4324"
     inkscape:connector-curvature="0"
     sodipodi:nodetypes="csccccc" />
</svg>
