<?xml version="1.0" encoding="UTF-8" standalone="no"?>
<svg
   xmlns:osb="http://www.openswatchbook.org/uri/2009/osb"
   xmlns:dc="http://purl.org/dc/elements/1.1/"
   xmlns:cc="http://creativecommons.org/ns#"
   xmlns:rdf="http://www.w3.org/1999/02/22-rdf-syntax-ns#"
   xmlns:svg="http://www.w3.org/2000/svg"
   xmlns="http://www.w3.org/2000/svg"
   xmlns:sodipodi="http://sodipodi.sourceforge.net/DTD/sodipodi-0.dtd"
   xmlns:inkscape="http://www.inkscape.org/namespaces/inkscape"
   version="1.1"
   viewBox="0 0 500 346"
   xml:space="preserve"
   id="svg2"
   inkscape:version="0.91 r13725"
   sodipodi:docname="resposive.svg"
   inkscape:export-filename="/home/klimic/Stažené/resposive.png"
   inkscape:export-xdpi="90"
   inkscape:export-ydpi="90"
   width="500"
   height="346"><metadata
     id="metadata19"><rdf:RDF><cc:Work
         rdf:about=""><dc:format>image/svg+xml</dc:format><dc:type
           rdf:resource="http://purl.org/dc/dcmitype/StillImage" /><dc:title></dc:title></cc:Work></rdf:RDF></metadata><defs
     id="defs17"><linearGradient
       id="linearGradient5590"
       osb:paint="gradient"><stop
         style="stop-color:#000000;stop-opacity:1;"
         offset="0"
         id="stop5592" /><stop
         style="stop-color:#000000;stop-opacity:0;"
         offset="1"
         id="stop5594" /></linearGradient><inkscape:path-effect
       effect="spiro"
       id="path-effect4154"
       is_visible="true" /></defs><sodipodi:namedview
     pagecolor="#ffffff"
     bordercolor="#666666"
     borderopacity="1"
     objecttolerance="10"
     gridtolerance="10"
     guidetolerance="10"
     inkscape:pageopacity="0"
     inkscape:pageshadow="2"
     inkscape:window-width="1366"
     inkscape:window-height="704"
     id="namedview15"
     showgrid="false"
     inkscape:zoom="0.944"
     inkscape:cx="294.05823"
     inkscape:cy="276.75603"
     inkscape:window-x="-4"
     inkscape:window-y="0"
     inkscape:window-maximized="1"
     inkscape:current-layer="svg2" /><g
     id="_x32_3"
     transform="matrix(1.691929,0,0,1.691929,-172.9864,-250.02771)"
     style="fill:#000000;fill-opacity:1"><path
       d="m 270.052,341.998 3.358,7.183 c 0,0 0,2.105 -1.405,2.105 -1.399,0 -79.085,0 -80.49,0 -1.399,0 -1.747,-2.105 -1.747,-2.105 l 3.353,-7.183 76.931,0 z m -0.162,-15.251 -76.97,0 0,13.493 76.97,0 0,-13.493 z m -153.039,-34.549 0,-126.063 223.253,0 0,14.366 14.643,0 0,-24.777 c 0,-3.857 -3.152,-7.01 -7.01,-7.01 l -237.95,0 c -3.857,0 -7.009,3.152 -7.009,7.01 l 0,140.175 0,3.299 0,16.385 c 0,4.318 3.152,7.872 7.009,7.872 l 188.107,0 0,-31.256 -181.043,0 z"
       style="fill:#000000;fill-opacity:1"
       id="path10"
       inkscape:connector-curvature="0" /><path
       d="m 380.339,188.911 -57.156,0 c -9.294,0 -16.89,7.601 -16.89,16.878 l 0,128.602 c 0,9.288 7.596,16.895 16.89,16.895 l 57.156,0 c 9.288,0 16.884,-7.606 16.884,-16.895 l 0,-128.602 c 0,-9.277 -7.596,-16.878 -16.884,-16.878 z m -38.971,4.931 c 0,-0.564 0.934,-1.037 2.072,-1.037 l 16.64,0 c 1.14,0 2.072,0.472 2.072,1.037 l 0,0.526 c 0,0.564 -0.933,1.037 -2.072,1.037 l -16.64,0 c -1.139,0 -2.072,-0.472 -2.072,-1.037 l 0,-0.526 z m 12.343,6.115 c 0,1.074 -0.879,1.948 -1.953,1.948 -1.074,0 -1.953,-0.874 -1.953,-1.948 0,-1.085 0.879,-1.959 1.953,-1.959 1.074,0 1.953,0.874 1.953,1.959 z m 8.441,142.746 c 0,1.145 -0.933,2.083 -2.072,2.083 l -16.64,0 c -1.139,0 -2.072,-0.938 -2.072,-2.083 l 0,-1.036 c 0,-1.14 0.934,-2.067 2.072,-2.067 l 16.64,0 c 1.14,0 2.072,0.928 2.072,2.067 l 0,1.036 z m 28.066,-8.311 -75.716,0 0,-128.603 75.716,0 0,128.603 z"
       style="fill:#000000;fill-opacity:1"
       id="path12"
       inkscape:connector-curvature="0" /></g><g
     id="Layer_1"
     transform="translate(0,-154)" /><rect
     style="opacity:1;fill:#000000;fill-opacity:0.20392157;stroke:none;stroke-width:11.06931973;stroke-miterlimit:4;stroke-dasharray:none;stroke-opacity:0.61492537"
     id="rect5600"
     width="115.14044"
     height="45.184834"
     x="365.5784"
     y="192.92917" /><rect
     style="opacity:1;fill:#000000;fill-opacity:0.20392157;stroke:none;stroke-width:15;stroke-miterlimit:4;stroke-dasharray:none;stroke-opacity:0.61492537"
     id="rect5604"
     width="115.15512"
     height="25.988316"
     x="365.59903"
     y="105.74335" /><rect
     style="opacity:1;fill:#000000;fill-opacity:0.20392157;stroke:none;stroke-width:15;stroke-miterlimit:4;stroke-dasharray:none;stroke-opacity:0.61492537"
     id="rect5606"
     width="115.27414"
     height="60.455158"
     x="365.50607"
     y="245.08398" /><rect
     style="opacity:1;fill:#000000;fill-opacity:0.38208959;stroke:none;stroke-width:15;stroke-miterlimit:4;stroke-dasharray:none;stroke-opacity:0.61492537"
     id="rect5608"
     width="1.9010186"
     height="2.5346916"
     x="541.16296"
     y="295.57581" /><rect
     y="140.95251"
     x="365.5784"
     height="45.184834"
     width="115.14044"
     id="rect5627"
     style="opacity:1;fill:#000000;fill-opacity:0.20392157;stroke:none;stroke-width:11.06931973;stroke-miterlimit:4;stroke-dasharray:none;stroke-opacity:0.61492537" /><rect
     style="opacity:1;fill:#000000;fill-opacity:0.20392157;stroke:none;stroke-width:15;stroke-miterlimit:4;stroke-dasharray:none;stroke-opacity:0.61492537"
     id="rect5639"
     width="292.0708"
     height="64.592728"
     x="38.924801"
     y="169.36993" /><rect
     style="opacity:1;fill:#000000;fill-opacity:0.20392157;stroke:none;stroke-width:15;stroke-miterlimit:4;stroke-dasharray:none;stroke-opacity:0.61492537"
     id="rect5641"
     width="139.40796"
     height="65.418869"
     x="38.895985"
     y="91.404968" /><rect
     style="opacity:1;fill:#000000;fill-opacity:0.20392157;stroke:none;stroke-width:15;stroke-miterlimit:4;stroke-dasharray:none;stroke-opacity:0.61492537"
     id="rect5641-0"
     width="139.27426"
     height="67.099129"
     x="191.74615"
     y="91.068863" /><path
     style="fill:#000000;fill-opacity:0.20392157;fill-rule:evenodd;stroke:none;stroke-width:1px;stroke-linecap:butt;stroke-linejoin:miter;stroke-opacity:1"
     d="m 39.852607,41.47296 350.179373,0 0,13.93998 -28.00936,0.10873 C 346.22694,58.41673 334.82211,71.56991 331.22468,81.315 l -292.321064,0.51487 0,-40.35705 z"
     id="path5699"
     inkscape:connector-curvature="0"
     sodipodi:nodetypes="cccccccc" /><g
     transform="matrix(0.20529969,0,0,0.20529969,192.97849,249.37261)"
     id="g10505"><path
       inkscape:connector-curvature="0"
       id="path3516"
       d="M 68.245427,133.41086 C 34.588653,99.678657 6.1932676,71.181001 5.1445682,70.082746 l -1.9067197,-1.996839 36.7838355,0 36.783822,0 26.440104,63.198873 c 14.54206,34.75938 26.38472,63.25704 26.31702,63.3281 -0.0677,0.0711 -27.66043,-27.46983 -61.317203,-61.20202 z"
       style="fill:#ffffff;fill-opacity:1" /><path
       inkscape:connector-curvature="0"
       id="path4318"
       d="M 112.37646,134.99368 C 97.347894,98.888593 85.151883,69.242606 85.274218,69.113689 c 0.208323,-0.21953 108.699442,-1.007491 108.968172,-0.791452 0.20021,0.161065 -54.03275,132.317053 -54.299,132.317053 -0.13323,0 -12.53836,-29.54052 -27.56693,-65.64561 z"
       style="fill:#ffffff;fill-opacity:1" /><path
       inkscape:connector-curvature="0"
       id="path4320"
       d="m 149.71011,195.64471 c 0,-0.12855 11.84605,-28.83138 26.32455,-63.78423 l 26.32456,-63.550664 10.32817,-0.106221 c 5.68051,-0.05831 22.08324,0.04249 36.45059,0.223909 l 26.12237,0.330043 -58.84424,59.533463 c -32.36434,32.74342 -60.61314,61.34556 -62.77513,63.56035 -2.16198,2.21481 -3.93087,3.92179 -3.93087,3.79329 z"
       style="fill:#ffffff;fill-opacity:1" /><path
       sodipodi:nodetypes="scccss"
       inkscape:connector-curvature="0"
       id="path4322"
       d="M 188.32407,63.61103 146.40825,63.383848 C 170.00912,44.895031 192.47195,24.52004 215.74098,6.1551547 240.34181,29.559339 258.21544,44.595424 277.82432,64.055574 L 254.0321,63.946969 c -13.08574,-0.05983 -42.65434,-0.210924 -65.70803,-0.335852 z"
       style="fill:#ffffff;fill-opacity:1" /><path
       sodipodi:nodetypes="csccccc"
       inkscape:connector-curvature="0"
       id="path4324"
       d="M 49.632213,5.0578096 128.46215,5.260279 C 171.81861,5.3717022 207.4507,5.5024619 207.64457,5.5510415 180.47726,27.565536 156.28602,48.42383 138.44869,63.569821 l -70.896675,0.01951 -65.4878463,0.01951 C 18.909625,41.945329 32.291553,26.200428 49.632213,5.0578529 Z"
       style="fill:#ffffff;fill-opacity:1;stroke:none;stroke-opacity:1" /></g></svg>